<svg xmlns="http://www.w3.org/2000/svg" viewBox="0 0 64 64" id="icon"><path d="M42.3963 22.8955C40.4842 22.0182 38.4337 21.3718 36.2899 21.0016C36.2508 20.9944 36.2118 21.0123 36.1917 21.048C35.928 21.517 35.6359 22.1289 35.4314 22.6098C33.1255 22.2646 30.8315 22.2646 28.5729 22.6098C28.3683 22.1182 28.0656 21.517 27.8007 21.048C27.7806 21.0135 27.7416 20.9956 27.7026 21.0016C25.5599 21.3706 23.5095 22.017 21.5962 22.8955C21.5796 22.9027 21.5654 22.9146 21.556 22.93C17.6667 28.7405 16.6013 34.4081 17.124 40.0055C17.1263 40.0329 17.1417 40.0591 17.163 40.0757C19.729 41.9601 22.2146 43.1041 24.6541 43.8624C24.6931 43.8743 24.7345 43.8601 24.7594 43.8279C25.3364 43.0399 25.8508 42.209 26.2918 41.3352C26.3179 41.284 26.293 41.2233 26.2398 41.203C25.4239 40.8935 24.647 40.5162 23.8997 40.0876C23.8405 40.0531 23.8358 39.9686 23.8902 39.9281C24.0475 39.8102 24.2048 39.6876 24.3549 39.5638C24.3821 39.5412 24.42 39.5364 24.4519 39.5507C29.3616 41.7923 34.6769 41.7923 39.5287 39.5507C39.5606 39.5352 39.5985 39.54 39.6268 39.5626C39.7771 39.6864 39.9343 39.8102 40.0928 39.9281C40.1472 39.9686 40.1436 40.0531 40.0845 40.0876C39.3372 40.5245 38.5602 40.8935 37.7431 41.2019C37.6899 41.2221 37.6663 41.284 37.6923 41.3352C38.1428 42.2077 38.6572 43.0387 39.2236 43.8267C39.2473 43.8601 39.2898 43.8743 39.3289 43.8624C41.7802 43.1041 44.2658 41.9601 46.8318 40.0757C46.8543 40.0591 46.8685 40.0341 46.8708 40.0067C47.4964 33.5355 45.8231 27.9143 42.4353 22.9312C42.427 22.9146 42.4128 22.9027 42.3963 22.8955ZM27.025 36.5973C25.5469 36.5973 24.3289 35.2402 24.3289 33.5736C24.3289 31.907 25.5233 30.55 27.025 30.55C28.5386 30.55 29.7448 31.9189 29.7211 33.5736C29.7211 35.2402 28.5268 36.5973 27.025 36.5973ZM36.9934 36.5973C35.5153 36.5973 34.2974 35.2402 34.2974 33.5736C34.2974 31.907 35.4917 30.55 36.9934 30.55C38.507 30.55 39.7132 31.9189 39.6895 33.5736C39.6895 35.2402 38.507 36.5973 36.9934 36.5973Z"></path></svg>